<?xml version="1.0" encoding="UTF-8"?>
<svg id="Layer_2" data-name="Layer 2" xmlns="http://www.w3.org/2000/svg" viewBox="0 0 90.53 88.92">
  <defs>
    <style>
      .cls-1 {
        fill: #fff;
      }
    </style>
  </defs>
  <g id="Layer_1-2" data-name="Layer 1">
    <g>
      <path class="cls-1" d="M23.89,11.19c7.92-.51,16.09,1.28,23.36,4.47,19.02,8.3,28.85,26.55,32.56,46.34,1.28,6.89,12,3.96,10.6-2.94-4.21-21.96-15.83-42.64-36.77-52.47C44.57,2.39,33.85-.55,23.76,.09c-6.89,.64-6.89,11.62,.13,11.11h0Z"/>
      <path class="cls-1" d="M45.45,66.19c-22.34,.26-22.47,.51-22.72,22.72-.26-22.34-.51-22.47-22.72-22.72,22.34-.26,22.47-.51,22.72-22.72,.26,22.21,.38,22.47,22.72,22.72Z"/>
    </g>
  </g>
</svg>