<?xml version="1.0" encoding="UTF-8"?>
<svg id="Layer_2" data-name="Layer 2" xmlns="http://www.w3.org/2000/svg" viewBox="0 0 103.73 103.99">
  <defs>
    <style>
      .cls-1 {
        fill: #fff;
      }

      .cls-2 {
        opacity: 0;
      }
    </style>
  </defs>
  <g id="Layer_1-2" data-name="Layer 1">
    <g>
      <g>
        <g class="cls-2">
          <path d="M51.81,9.9c30.6,.4,51.9,33.5,37.3,61.3-14.2,27-53.1,30.4-71.2,5.5-11.3-15.6-10.2-36.2,1.3-51.3,3.9-5.1-4.8-10.1-8.6-5C-1.69,36.6-3.49,59,6.21,76.9c8.5,15.7,25.1,26,42.9,27,38,2.2,65.5-38,50.4-72.7C91.31,12.3,72.41,.3,51.91,0c-6.5-.2-6.5,9.8-.1,9.9h0Z"/>
        </g>
        <path class="cls-1" d="M74.59,51.99c-22.34,.26-22.47,.51-22.72,22.72-.26-22.34-.51-22.47-22.72-22.72,22.34-.26,22.47-.51,22.72-22.72,.26,22.21,.38,22.47,22.72,22.72Z"/>
      </g>
      <path class="cls-1" d="M50.56,8.77c6.2-.4,12.6,1,18.3,3.5,14.9,6.5,22.6,20.8,25.5,36.3,1,5.4,9.4,3.1,8.3-2.3-3.3-17.2-12.4-33.4-28.8-41.1C66.76,1.87,58.36-.43,50.46,.07c-5.4,.5-5.4,9.1,.1,8.7h0Z"/>
    </g>
  </g>
</svg>