<?xml version="1.0" encoding="UTF-8"?>
<svg id="Layer_2" data-name="Layer 2" xmlns="http://www.w3.org/2000/svg" viewBox="0 0 104 104">
  <defs>
    <style>
      .cls-1 {
        fill: #fff;
      }

      .cls-2 {
        opacity: 0;
      }
    </style>
  </defs>
  <g id="Layer_1-2" data-name="Layer 1">
    <g>
      <g>
        <g class="cls-2">
          <path d="M51.95,9.9c30.68,.4,52.04,33.5,37.4,61.31-14.24,27-53.24,30.4-71.39,5.5-11.33-15.6-10.23-36.2,1.3-51.31,3.91-5.1-4.81-10.1-8.62-5C-1.69,36.61-3.5,59.01,6.23,76.91c8.52,15.7,25.17,26,43.01,27,38.1,2.2,65.67-38,50.53-72.71C91.55,12.3,72.6,.3,52.05,0c-6.52-.2-6.52,9.8-.1,9.9h0Z"/>
        </g>
        <path class="cls-1" d="M74.78,52c-22.4,.26-22.53,.51-22.78,22.73-.26-22.34-.51-22.47-22.78-22.73,22.4-.26,22.53-.51,22.78-22.73,.26,22.22,.38,22.47,22.78,22.73Z"/>
      </g>
      <path class="cls-1" d="M50.69,8.77c6.22-.4,12.63,1,18.35,3.5,14.94,6.5,22.66,20.8,25.57,36.3,1,5.4,9.42,3.1,8.32-2.3-3.31-17.2-12.43-33.4-28.88-41.1C66.93,1.87,58.51-.43,50.59,.07c-5.41,.5-5.41,9.1,.1,8.7h0Z"/>
    </g>
  </g>
</svg>