<?xml version="1.0" encoding="UTF-8"?>
<svg id="Layer_2" data-name="Layer 2" xmlns="http://www.w3.org/2000/svg" viewBox="0 0 104.09 104">
  <defs>
    <style>
      .cls-1 {
        fill: #fff;
      }

      .cls-2 {
        fill: none;
      }
    </style>
  </defs>
  <g id="Layer_1-2" data-name="Layer 1">
    <g>
      <g>
        <path class="cls-1" d="M69.82,52c-17.45,.2-17.62,.36-17.82,17.82-.2-17.45-.36-17.62-17.82-17.82,17.45-.2,17.62-.36,17.82-17.82,.2,17.45,.36,17.62,17.82,17.82Z"/>
        <path class="cls-1" d="M51.84,9.37c6.18-.42,12.57,1.04,18.32,3.55,14.95,6.53,22.55,20.83,25.53,36.25,1.05,5.44,9.36,3.14,8.31-2.29-3.32-17.22-12.4-33.37-28.77-41.07C68.17,2.48,59.74,.22,51.84,.75c-5.51,.37-5.55,9,0,8.62h0Z"/>
      </g>
      <rect class="cls-2" width="104" height="104"/>
    </g>
  </g>
</svg>