<?xml version="1.0" encoding="utf-8"?>
<!-- Generator: Adobe Illustrator 27.0.0, SVG Export Plug-In . SVG Version: 6.00 Build 0)  -->
<svg version="1.1" id="Layer_1" xmlns="http://www.w3.org/2000/svg" xmlns:xlink="http://www.w3.org/1999/xlink" x="0px" y="0px"
	 viewBox="0 0 1920 1078" style="enable-background:new 0 0 1920 1078;" xml:space="preserve">
<style type="text/css">
	.st0{fill:#FFFFFF;}
	.st1{clip-path:url(#SVGID_00000013891503745160228320000007165019437510479000_);}
	.st2{clip-path:url(#SVGID_00000086672973630648090190000010877953021894065332_);}
	
		.st3{clip-path:url(#SVGID_00000013891503745160228320000007165019437510479000_);fill:none;stroke:#000000;stroke-width:2;stroke-miterlimit:10;}
	.st4{fill:none;stroke:#000000;}
	.st5{font-family:'Pretendard-Bold';}
	.st6{font-size:48px;}
	.st7{clip-path:url(#SVGID_00000013891503745160228320000007165019437510479000_);fill:#E5E3E3;}
	.st8{font-size:22.1216px;}
	.st9{fill:none;stroke:#000000;stroke-miterlimit:10;}
	.st10{font-size:24px;}
	.st11{font-family:'Pretendard-Medium';}
	.st12{font-size:20px;}
	.st13{font-family:'Pretendard-Regular';}
	.st14{font-size:22px;}
	.st15{font-family:'Pretendard-SemiBold';}
	
		.st16{clip-path:url(#SVGID_00000013891503745160228320000007165019437510479000_);fill:none;stroke:#000000;stroke-width:1.5;stroke-linecap:round;stroke-linejoin:round;}
	
		.st17{clip-path:url(#SVGID_00000013891503745160228320000007165019437510479000_);fill:none;stroke:#000000;stroke-width:12;stroke-miterlimit:10;}
	.st18{fill:none;stroke:#000000;stroke-width:1.5;stroke-linecap:round;stroke-linejoin:round;}
	.st19{fill:none;stroke:#000000;stroke-width:1.5;}
	.st20{fill:none;stroke:#000000;stroke-width:1.5;stroke-linejoin:round;}
	.st21{fill:none;stroke:#000000;stroke-width:1.5;stroke-linecap:round;}
	.st22{fill:none;}
</style>
<g>
	<path class="st0" d="M2101,667c-17.5,0.2-17.6,0.4-17.8,17.8c-0.2-17.5-0.4-17.6-17.8-17.8c17.5-0.2,17.6-0.4,17.8-17.8
		C2083.4,666.6,2083.5,666.8,2101,667z"/>
</g>
<g>
	<g>
		<path class="st0" d="M2083,624.3c6.2-0.4,12.6,1,18.3,3.5c14.9,6.5,22.6,20.8,25.5,36.3c1,5.4,9.4,3.1,8.3-2.3
			c-3.3-17.2-12.4-33.4-28.8-41.1c-7.1-3.3-15.5-5.6-23.4-5.1C2077.5,616.1,2077.5,624.7,2083,624.3L2083,624.3z"/>
	</g>
</g>
<g>
	<defs>
		<rect id="SVGID_1_" width="1920" height="1078"/>
	</defs>
	<clipPath id="SVGID_00000147906728658855452200000013863660820094022528_">
		<use xlink:href="#SVGID_1_"  style="overflow:visible;"/>
	</clipPath>
	<g style="clip-path:url(#SVGID_00000147906728658855452200000013863660820094022528_);">
		<defs>
			<path id="SVGID_00000052089317823949542220000001270297062833744025_" d="M336,218.4c-2.6-51.7-45.3-92.9-97.7-92.9
				s-95.1,41.2-97.7,92.9h-0.1V414h195.6V218.4H336z"/>
		</defs>
		<clipPath id="SVGID_00000040551152444551598450000001093028673363296693_">
			<use xlink:href="#SVGID_00000052089317823949542220000001270297062833744025_"  style="overflow:visible;"/>
		</clipPath>
		<g style="clip-path:url(#SVGID_00000040551152444551598450000001093028673363296693_);">
			
				<image style="overflow:visible;" width="1366" height="1821" xlink:href="4B365516.jpg"  transform="matrix(0.1809 0 0 0.1809 114.7923 105.1114)">
			</image>
		</g>
		
			<use xlink:href="#SVGID_00000052089317823949542220000001270297062833744025_"  style="overflow:visible;fill:none;stroke:#000000;stroke-width:2;stroke-miterlimit:10;"/>
	</g>
	
		<path style="clip-path:url(#SVGID_00000147906728658855452200000013863660820094022528_);fill:none;stroke:#000000;stroke-width:2;stroke-miterlimit:10;" d="
		M344.7,207.7C341,151.5,294.2,107,237.1,107s-103.9,44.5-107.6,100.7h-0.2v7.1V425h215.6V214.8v-7.1H344.7z"/>
	<g style="clip-path:url(#SVGID_00000147906728658855452200000013863660820094022528_);">
		<text transform="matrix(1 0 0 1 374.041 229.1431)" class="st4 st5 st6">LEE HYE RIM</text>
	</g>
	<g style="clip-path:url(#SVGID_00000147906728658855452200000013863660820094022528_);">
		<text transform="matrix(1 0 0 1 374.041 183.1431)" class="st4 st5 st6">LEE HYE RIM</text>
	</g>
	<g style="clip-path:url(#SVGID_00000147906728658855452200000013863660820094022528_);">
		<text transform="matrix(1 0 0 1 373.041 140.1431)" class="st5 st6">LEE HYE RIM</text>
	</g>
	
		<rect x="175" y="456.7" style="clip-path:url(#SVGID_00000147906728658855452200000013863660820094022528_);" width="118" height="27"/>
	
		<rect x="177.2" y="458" style="clip-path:url(#SVGID_00000147906728658855452200000013863660820094022528_);fill:#E5E3E3;" width="115.5" height="25.4"/>
	<g style="clip-path:url(#SVGID_00000147906728658855452200000013863660820094022528_);">
		<text transform="matrix(1 0 0 1 203.9185 478.0522)" class="st5 st8">start</text>
	</g>
	<g style="clip-path:url(#SVGID_00000147906728658855452200000013863660820094022528_);">
		<path class="st9" d="M1410.8-75.5c13.3-16,37.5-17.5,57.7-12.4c20.2,5.1,39.8,16.2,50.4,34.2c14.1,23.8,9.8,53.6,7.5,81.2
			c-2.3,27.6-0.4,59.3,21,76.9c37.2,30.5,100.1-6.5,139.1,21.7c18.1,13.1,25.1,36.5,30.1,58.3c3.3,14.5,6.4,29.1,7.3,44
			c0.7,12.5,0.1,25.6,5.4,37c11.1,23.8,42.7,29.3,68.9,26.7c26.2-2.6,53.6-10,78-0.1c18.8,7.7,32.4,24.6,41.4,42.9
			c8.9,18.3,13.9,38.1,20.8,57.2c2.6,7.3,5.7,14.7,11.3,20c6.5,6.2,15.6,8.7,24.4,10.3c46.4,8.6,96.2-2.5,134.5-30"/>
		<path class="st9" d="M1427-82.6c13.3-16,37.5-17.5,57.7-12.4c20.2,5.1,39.8,16.2,50.4,34.2c14.1,23.8,9.8,53.6,7.5,81.2
			c-2.3,27.6-0.4,59.3,21,76.9c37.2,30.5,100.1-6.5,139.1,21.7c18.1,13.1,25.1,36.5,30.1,58.3c3.3,14.5,6.4,29.1,7.3,44
			c0.7,12.5,0.1,25.6,5.4,37c11.1,23.8,42.7,29.3,68.9,26.7c26.2-2.6,53.6-10,78-0.1c18.8,7.7,32.4,24.6,41.4,42.9
			c8.9,18.3,13.9,38.1,20.8,57.2c2.6,7.3,5.7,14.7,11.3,20c6.5,6.2,15.6,8.7,24.4,10.3c46.4,8.6,96.2-2.5,134.5-30"/>
		<path class="st9" d="M1443.1-89.6c13.3-16,37.5-17.5,57.7-12.4c20.2,5.1,39.8,16.2,50.4,34.2c14.1,23.8,9.8,53.6,7.5,81.2
			s-0.4,59.3,21,76.9c37.2,30.5,100.1-6.5,139.1,21.7c18.1,13.1,25.1,36.5,30.1,58.3c3.3,14.5,6.4,29.1,7.3,44
			c0.7,12.5,0.1,25.6,5.4,37c11.1,23.8,42.7,29.3,68.9,26.7c26.2-2.6,53.6-10,78-0.1c18.8,7.7,32.4,24.6,41.4,42.9
			s13.9,38.1,20.8,57.2c2.6,7.3,5.7,14.7,11.3,20c6.5,6.2,15.6,8.7,24.4,10.3c46.4,8.6,96.2-2.5,134.5-30"/>
		<path class="st9" d="M1459.3-96.6c13.3-16,37.5-17.5,57.7-12.4c20.2,5.1,39.8,16.2,50.4,34.2c14.1,23.8,9.8,53.6,7.5,81.2
			c-2.3,27.6-0.4,59.3,21,76.9c37.2,30.5,100.1-6.5,139.1,21.7c18.1,13.1,25.1,36.5,30.1,58.3c3.3,14.5,6.4,29.1,7.3,44
			c0.7,12.5,0.1,25.6,5.4,37c11.1,23.8,42.7,29.3,68.9,26.7c26.2-2.6,53.6-10,78-0.1c18.8,7.7,32.4,24.6,41.4,42.9
			c8.9,18.3,13.9,38.1,20.8,57.2c2.6,7.3,5.7,14.7,11.3,20c6.5,6.2,15.6,8.7,24.4,10.3c46.4,8.6,96.2-2.5,134.5-30"/>
		<path class="st9" d="M1475.5-103.7c13.3-16,37.5-17.5,57.7-12.4c20.2,5.1,39.8,16.2,50.4,34.2c14.1,23.8,9.8,53.6,7.5,81.2
			c-2.3,27.6-0.4,59.3,21,76.9c37.2,30.5,100.1-6.5,139.1,21.7c18.1,13.1,25.1,36.5,30.1,58.3c3.3,14.5,6.4,29.1,7.3,44
			c0.7,12.5,0.1,25.6,5.4,37c11.1,23.8,42.7,29.3,68.9,26.7c26.2-2.6,53.6-10,78-0.1c18.8,7.7,32.4,24.6,41.4,42.9
			c8.9,18.3,13.9,38.1,20.8,57.2c2.6,7.3,5.7,14.7,11.3,20c6.5,6.2,15.6,8.7,24.4,10.3c46.4,8.6,96.2-2.5,134.5-30"/>
		<path class="st9" d="M1491.6-110.7c13.3-16,37.5-17.5,57.7-12.4c20.2,5.1,39.8,16.2,50.4,34.2c14.1,23.8,9.8,53.6,7.5,81.2
			s-0.4,59.3,21,76.9c37.2,30.5,100.1-6.5,139.1,21.7c18.1,13.1,25.1,36.5,30.1,58.3c3.3,14.5,6.4,29.1,7.3,44
			c0.7,12.5,0.1,25.6,5.4,37c11.1,23.8,42.7,29.3,68.9,26.7c26.2-2.6,53.6-10,78-0.1c18.8,7.7,32.4,24.6,41.4,42.9
			s13.9,38.1,20.8,57.2c2.6,7.3,5.7,14.7,11.3,20c6.5,6.2,15.6,8.7,24.4,10.3c46.4,8.6,96.2-2.5,134.5-30"/>
		<path class="st9" d="M1507.8-117.8c13.3-16,37.5-17.5,57.7-12.4c20.2,5.1,39.8,16.2,50.4,34.2c14.1,23.8,9.8,53.6,7.5,81.2
			c-2.3,27.6-0.4,59.3,21,76.9c37.2,30.5,100.1-6.5,139.1,21.7c18.1,13.1,25.1,36.5,30.1,58.3c3.3,14.5,6.4,29.1,7.3,44
			c0.7,12.5,0.1,25.6,5.4,37c11.1,23.8,42.7,29.3,68.9,26.7c26.2-2.6,53.6-10,78-0.1c18.8,7.7,32.4,24.6,41.4,42.9
			c8.9,18.3,13.9,38.1,20.8,57.2c2.6,7.3,5.7,14.7,11.3,20c6.5,6.2,15.6,8.7,24.4,10.3c46.4,8.6,96.2-2.5,134.5-30"/>
		<path class="st9" d="M1524-124.8c13.3-16,37.5-17.5,57.7-12.4c20.2,5.1,39.8,16.2,50.4,34.2c14.1,23.8,9.8,53.6,7.5,81.2
			c-2.3,27.6-0.4,59.3,21,76.9c37.2,30.5,100.1-6.5,139.1,21.7c18.1,13.1,25.1,36.5,30.1,58.3c3.3,14.5,6.4,29.1,7.3,44
			c0.7,12.5,0.1,25.6,5.4,37c11.1,23.8,42.7,29.3,68.9,26.7c26.2-2.6,53.6-10,78-0.1c18.8,7.7,32.4,24.6,41.4,42.9
			c8.9,18.3,13.9,38.1,20.8,57.2c2.6,7.3,5.7,14.7,11.3,20c6.5,6.2,15.6,8.7,24.4,10.3c46.4,8.6,96.2-2.5,134.5-30"/>
		<path class="st9" d="M1540.1-131.9c13.3-16,37.5-17.5,57.7-12.4c20.2,5.1,39.8,16.2,50.4,34.2c14.1,23.8,9.8,53.6,7.5,81.2
			s-0.4,59.3,21,76.9c37.2,30.5,100.1-6.5,139.1,21.7c18.1,13.1,25.1,36.5,30.1,58.3c3.3,14.5,6.4,29.1,7.3,44
			c0.7,12.5,0.1,25.6,5.4,37c11.1,23.8,42.7,29.3,68.9,26.7c26.2-2.6,53.6-10,78-0.1c18.8,7.7,32.4,24.6,41.4,42.9
			c8.9,18.3,13.9,38.1,20.8,57.2c2.6,7.3,5.7,14.7,11.3,20c6.5,6.2,15.6,8.7,24.4,10.3c46.4,8.6,96.2-2.5,134.5-30"/>
		<path class="st9" d="M1556.3-138.9c13.3-16,37.5-17.5,57.7-12.4c20.2,5.1,39.8,16.2,50.4,34.2c14.1,23.8,9.8,53.6,7.5,81.2
			c-2.3,27.6-0.4,59.3,21,76.9c37.2,30.5,100.1-6.5,139.1,21.7c18.1,13.1,25.1,36.5,30.1,58.3c3.3,14.5,6.4,29.1,7.3,44
			c0.7,12.5,0.1,25.6,5.4,37c11.1,23.8,42.7,29.3,68.9,26.7c26.2-2.6,53.6-10,78-0.1c18.8,7.7,32.4,24.6,41.4,42.9
			c8.9,18.3,13.9,38.1,20.8,57.2c2.6,7.3,5.7,14.7,11.3,20c6.5,6.2,15.6,8.7,24.4,10.3c46.4,8.6,96.2-2.5,134.5-30"/>
		<path class="st9" d="M1572.5-145.9c13.3-16,37.5-17.5,57.7-12.4c20.2,5.1,39.8,16.2,50.4,34.2c14.1,23.8,9.8,53.6,7.5,81.2
			c-2.3,27.6-0.4,59.3,21,76.9c37.2,30.5,100.1-6.5,139.1,21.7c18.1,13.1,25.1,36.5,30.1,58.3c3.3,14.5,6.4,29.1,7.3,44
			c0.7,12.5,0.1,25.6,5.4,37c11.1,23.8,42.7,29.3,68.9,26.7c26.2-2.6,53.6-10,78-0.1c18.8,7.7,32.4,24.6,41.4,42.9
			c8.9,18.3,13.9,38.1,20.8,57.2c2.6,7.3,5.7,14.7,11.3,20c6.5,6.2,15.6,8.7,24.4,10.3c46.4,8.6,96.2-2.5,134.5-30"/>
		<path class="st9" d="M1588.6-153c13.3-16,37.5-17.5,57.7-12.4c20.2,5.1,39.8,16.2,50.4,34.2c14.1,23.8,9.8,53.6,7.5,81.2
			s-0.4,59.3,21,76.9c37.2,30.5,100.1-6.5,139.1,21.7c18.1,13.1,25.1,36.5,30.1,58.3c3.3,14.5,6.4,29.1,7.3,44
			c0.7,12.5,0.1,25.6,5.4,37c11.1,23.8,42.7,29.3,68.9,26.7c26.2-2.6,53.6-10,78-0.1c18.8,7.7,32.4,24.6,41.4,42.9
			c8.9,18.3,13.9,38.1,20.8,57.2c2.6,7.3,5.7,14.7,11.3,20c6.5,6.2,15.6,8.7,24.4,10.3c46.4,8.6,96.2-2.5,134.5-30"/>
		<path class="st9" d="M1604.8-160c13.3-16,37.5-17.5,57.7-12.4c20.2,5.1,39.8,16.2,50.4,34.2c14.1,23.8,9.8,53.6,7.5,81.2
			c-2.3,27.6-0.4,59.3,21,76.9c37.2,30.5,100.1-6.5,139.1,21.7c18.1,13.1,25.1,36.5,30.1,58.3c3.3,14.5,6.4,29.1,7.3,44
			c0.7,12.5,0.1,25.6,5.4,37c11.1,23.8,42.7,29.3,68.9,26.7c26.2-2.6,53.6-10,78-0.1c18.8,7.7,32.4,24.6,41.4,42.9
			c8.9,18.3,13.9,38.1,20.8,57.2c2.6,7.3,5.7,14.7,11.3,20c6.5,6.2,15.6,8.7,24.4,10.3c46.4,8.6,96.2-2.5,134.5-30"/>
		<path class="st9" d="M1621-167.1c13.3-16,37.5-17.5,57.7-12.4c20.2,5.1,39.8,16.2,50.4,34.2c14.1,23.8,9.8,53.6,7.5,81.2
			c-2.3,27.6-0.4,59.3,21,76.9c37.2,30.5,100.1-6.5,139.1,21.7c18.1,13.1,25.1,36.5,30.1,58.3c3.3,14.5,6.4,29.1,7.3,44
			c0.7,12.5,0.1,25.6,5.4,37c11.1,23.8,42.7,29.3,68.9,26.7c26.2-2.6,53.6-10,78-0.1c18.8,7.7,32.4,24.6,41.4,42.9
			c8.9,18.3,13.9,38.1,20.8,57.2c2.6,7.3,5.7,14.7,11.3,20c6.5,6.2,15.6,8.7,24.4,10.3c46.4,8.6,96.2-2.5,134.5-30"/>
		<path class="st9" d="M1637.1-174.1c13.3-16,37.5-17.5,57.7-12.4c20.2,5.1,39.8,16.2,50.4,34.2c14.1,23.8,9.8,53.6,7.5,81.2
			s-0.4,59.3,21,76.9c37.2,30.5,100.1-6.5,139.1,21.7c18.1,13.1,25.1,36.5,30.1,58.3c3.3,14.5,6.4,29.1,7.3,44
			c0.7,12.5,0.1,25.6,5.4,37c11.1,23.8,42.7,29.3,68.9,26.7c26.2-2.6,53.6-10,78-0.1c18.8,7.7,32.4,24.6,41.4,42.9
			c8.9,18.3,13.9,38.1,20.8,57.2c2.6,7.3,5.7,14.7,11.3,20c6.5,6.2,15.6,8.7,24.4,10.3c46.4,8.6,96.2-2.5,134.5-30"/>
		<path class="st9" d="M1653.3-181.1c13.3-16,37.5-17.5,57.7-12.4c20.2,5.1,39.8,16.2,50.4,34.2c14.1,23.8,9.8,53.6,7.5,81.2
			c-2.3,27.6-0.4,59.3,21,76.9c37.2,30.5,100.1-6.5,139.1,21.7c18.1,13.1,25.1,36.5,30.1,58.3c3.3,14.5,6.4,29.1,7.3,44
			c0.7,12.5,0.1,25.6,5.4,37c11.1,23.8,42.7,29.3,68.9,26.7c26.2-2.6,53.6-10,78-0.1c18.8,7.7,32.4,24.6,41.4,42.9
			c8.9,18.3,13.9,38.1,20.8,57.2c2.6,7.3,5.7,14.7,11.3,20c6.5,6.2,15.6,8.7,24.4,10.3c46.4,8.6,96.2-2.5,134.5-30"/>
		<path class="st9" d="M1669.5-188.2c13.3-16,37.5-17.5,57.7-12.4c20.2,5.1,39.8,16.2,50.4,34.2c14.1,23.8,9.8,53.6,7.5,81.2
			c-2.3,27.6-0.4,59.3,21,76.9c37.2,30.5,100.1-6.5,139.1,21.7c18.1,13.1,25.1,36.5,30.1,58.3c3.3,14.5,6.4,29.1,7.3,44
			c0.7,12.5,0.1,25.6,5.4,37c11.1,23.8,42.7,29.3,68.9,26.7c26.2-2.6,53.6-10,78-0.1c18.8,7.7,32.4,24.6,41.4,42.9
			c8.9,18.3,13.9,38.1,20.8,57.2c2.6,7.3,5.7,14.7,11.3,20c6.5,6.2,15.6,8.7,24.4,10.3c46.4,8.6,96.2-2.5,134.5-30"/>
		<path class="st9" d="M1685.6-195.2c13.3-16,37.5-17.5,57.7-12.4c20.2,5.1,39.8,16.2,50.4,34.2c14.1,23.8,9.8,53.6,7.5,81.2
			s-0.4,59.3,21,76.9c37.2,30.5,100.1-6.5,139.1,21.7c18.1,13.1,25.1,36.5,30.1,58.3c3.3,14.5,6.4,29.1,7.3,44
			c0.7,12.5,0.1,25.6,5.4,37c11.1,23.8,42.7,29.3,68.9,26.7c26.2-2.6,53.6-10,78-0.1c18.8,7.7,32.4,24.6,41.4,42.9
			c8.9,18.3,13.9,38.1,20.8,57.2c2.6,7.3,5.7,14.7,11.3,20c6.5,6.2,15.6,8.7,24.4,10.3c46.4,8.6,96.2-2.5,134.5-30"/>
		<path class="st9" d="M1701.8-202.3c13.3-16,37.5-17.5,57.7-12.4c20.2,5.1,39.8,16.2,50.4,34.2c14.1,23.8,9.8,53.6,7.5,81.2
			c-2.3,27.6-0.4,59.3,21,76.9c37.2,30.5,100.1-6.5,139.1,21.7c18.1,13.1,25.1,36.5,30.1,58.3c3.3,14.5,6.4,29.1,7.3,44
			c0.7,12.5,0.1,25.6,5.4,37c11.1,23.8,42.7,29.3,68.9,26.7c26.2-2.6,53.6-10,78-0.1c18.8,7.7,32.4,24.6,41.4,42.9
			c8.9,18.3,13.9,38.1,20.8,57.2c2.6,7.3,5.7,14.7,11.3,20c6.5,6.2,15.6,8.7,24.4,10.3c46.4,8.6,96.2-2.5,134.5-30"/>
		<path class="st9" d="M1718-209.3c13.3-16,37.5-17.5,57.7-12.4c20.2,5.1,39.8,16.2,50.4,34.2c14.1,23.8,9.8,53.6,7.5,81.2
			c-2.3,27.6-0.4,59.3,21,76.9C1891.8,1,1954.7-36,1993.7-7.8c18.1,13.1,25.1,36.5,30.1,58.3c3.3,14.5,6.4,29.1,7.3,44
			c0.7,12.5,0.1,25.6,5.4,37c11.1,23.8,42.7,29.3,68.9,26.7c26.2-2.6,53.6-10,78-0.1c18.8,7.7,32.4,24.6,41.4,42.9
			c8.9,18.3,13.9,38.1,20.8,57.2c2.6,7.3,5.7,14.7,11.3,20c6.5,6.2,15.6,8.7,24.4,10.3c46.4,8.6,96.2-2.5,134.5-30"/>
		<path class="st9" d="M1734.1-216.4c13.3-16,37.5-17.5,57.7-12.4c20.2,5.1,39.8,16.2,50.4,34.2c14.1,23.8,9.8,53.6,7.5,81.2
			s-0.4,59.3,21,76.9C1908-6,1970.8-43,2009.8-14.8c18.1,13.1,25.1,36.5,30.1,58.3c3.3,14.5,6.4,29.1,7.3,44
			c0.7,12.5,0.1,25.6,5.4,37c11.1,23.8,42.7,29.3,68.9,26.7c26.2-2.6,53.6-10,78-0.1c18.8,7.7,32.4,24.6,41.4,42.9
			c8.9,18.3,13.9,38.1,20.8,57.2c2.6,7.3,5.7,14.7,11.3,20c6.5,6.2,15.6,8.7,24.4,10.3c46.4,8.6,96.2-2.5,134.5-30"/>
		<path class="st9" d="M1750.3-223.4c13.3-16,37.5-17.5,57.7-12.4c20.2,5.1,39.8,16.2,50.4,34.2c14.1,23.8,9.8,53.6,7.5,81.2
			c-2.3,27.6-0.4,59.3,21,76.9C1924.1-13,1987-50,2026-21.8c18.1,13.1,25.1,36.5,30.1,58.3c3.3,14.5,6.4,29.1,7.3,44
			c0.7,12.5,0.1,25.6,5.4,37c11.1,23.8,42.7,29.3,68.9,26.7c26.2-2.6,53.6-10,78-0.1c18.8,7.7,32.4,24.6,41.4,42.9
			c8.9,18.3,13.9,38.1,20.8,57.2c2.6,7.3,5.7,14.7,11.3,20c6.5,6.2,15.6,8.7,24.4,10.3c46.4,8.6,96.2-2.5,134.5-30"/>
		<path class="st9" d="M1766.5-230.4c13.3-16,37.5-17.5,57.7-12.4c20.2,5.1,39.8,16.2,50.4,34.2c14.1,23.8,9.8,53.6,7.5,81.2
			c-2.3,27.6-0.4,59.3,21,76.9c37.2,30.5,100.1-6.5,139.1,21.7c18.1,13.1,25.1,36.5,30.1,58.3c3.3,14.5,6.4,29.1,7.3,44
			c0.7,12.5,0.1,25.6,5.4,37c11.1,23.8,42.7,29.3,68.9,26.7c26.2-2.6,53.6-10,78-0.1c18.8,7.7,32.4,24.6,41.4,42.9
			c8.9,18.3,13.9,38.1,20.8,57.2c2.6,7.3,5.7,14.7,11.3,20c6.5,6.2,15.6,8.7,24.4,10.3c46.4,8.6,96.2-2.5,134.5-30"/>
		<path class="st9" d="M1782.6-237.5c13.3-16,37.5-17.5,57.7-12.4c20.2,5.1,39.8,16.2,50.4,34.2c14.1,23.8,9.8,53.6,7.5,81.2
			s-0.4,59.3,21,76.9c37.2,30.5,100.1-6.5,139.1,21.7c18.1,13.1,25.1,36.5,30.1,58.3c3.3,14.5,6.4,29.1,7.3,44
			c0.7,12.5,0.1,25.6,5.4,37c11.1,23.8,42.7,29.3,68.9,26.7c26.2-2.6,53.6-10,78-0.1c18.8,7.7,32.4,24.6,41.4,42.9
			c8.9,18.3,13.9,38.1,20.8,57.2c2.6,7.3,5.7,14.7,11.3,20c6.5,6.2,15.6,8.7,24.4,10.3c46.4,8.6,96.2-2.5,134.5-30"/>
		<path class="st9" d="M1798.8-244.5c13.3-16,37.5-17.5,57.7-12.4c20.2,5.1,39.8,16.2,50.4,34.2c14.1,23.8,9.8,53.6,7.5,81.2
			c-2.3,27.6-0.4,59.3,21,76.9c37.2,30.5,100.1-6.5,139.1,21.7c18.1,13.1,25.1,36.5,30.1,58.3c3.3,14.5,6.4,29.1,7.3,44
			c0.7,12.5,0.1,25.6,5.4,37c11.1,23.8,42.7,29.3,68.9,26.7s53.6-10,78-0.1c18.8,7.7,32.4,24.6,41.4,42.9
			c8.9,18.3,13.9,38.1,20.8,57.2c2.6,7.3,5.7,14.7,11.3,20c6.5,6.2,15.6,8.7,24.4,10.3c46.4,8.6,96.2-2.5,134.5-30"/>
	</g>
	<g style="clip-path:url(#SVGID_00000147906728658855452200000013863660820094022528_);">
		<path class="st9" d="M-463.2,704.5c13.3-16,37.5-17.5,57.7-12.4c20.2,5.1,39.8,16.2,50.4,34.2c14.1,23.8,9.8,53.6,7.5,81.2
			s-0.4,59.3,21,76.9c37.2,30.5,100.1-6.5,139.1,21.7c18.1,13.1,25.1,36.5,30.1,58.3c3.3,14.5,6.4,29.1,7.3,44
			c0.7,12.5,0.1,25.6,5.4,37c11.1,23.8,42.7,29.3,68.9,26.7c26.2-2.6,53.6-10,78-0.1c18.8,7.7,32.4,24.6,41.4,42.9
			s13.9,38.1,20.8,57.2c2.6,7.3,5.7,14.7,11.3,20c6.5,6.2,15.6,8.7,24.4,10.3c46.4,8.6,96.2-2.5,134.5-30"/>
		<path class="st9" d="M-447,697.4c13.3-16,37.5-17.5,57.7-12.4c20.2,5.1,39.8,16.2,50.4,34.2c14.1,23.8,9.8,53.6,7.5,81.2
			c-2.3,27.6-0.4,59.3,21,76.9c37.2,30.5,100.1-6.5,139.1,21.7c18.1,13.1,25.1,36.5,30.1,58.3c3.3,14.5,6.4,29.1,7.3,44
			c0.7,12.5,0.1,25.6,5.4,37c11.1,23.8,42.7,29.3,68.9,26.7c26.2-2.6,53.6-10,78-0.1c18.8,7.7,32.4,24.6,41.4,42.9
			c8.9,18.3,13.9,38.1,20.8,57.2c2.6,7.3,5.7,14.7,11.3,20c6.5,6.2,15.6,8.7,24.4,10.3c46.4,8.6,96.2-2.5,134.5-30"/>
		<path class="st9" d="M-430.9,690.4c13.3-16,37.5-17.5,57.7-12.4c20.2,5.1,39.8,16.2,50.4,34.2c14.1,23.8,9.8,53.6,7.5,81.2
			c-2.3,27.6-0.4,59.3,21,76.9c37.2,30.5,100.1-6.5,139.1,21.7c18.1,13.1,25.1,36.5,30.1,58.3c3.3,14.5,6.4,29.1,7.3,44
			c0.7,12.5,0.1,25.6,5.4,37c11.1,23.8,42.7,29.3,68.9,26.7c26.2-2.6,53.6-10,78-0.1c18.8,7.7,32.4,24.6,41.4,42.9
			c8.9,18.3,13.9,38.1,20.8,57.2c2.6,7.3,5.7,14.7,11.3,20c6.5,6.2,15.6,8.7,24.4,10.3c46.4,8.6,96.2-2.5,134.5-30"/>
		<path class="st9" d="M-414.7,683.4c13.3-16,37.5-17.5,57.7-12.4c20.2,5.1,39.8,16.2,50.4,34.2c14.1,23.8,9.8,53.6,7.5,81.2
			s-0.4,59.3,21,76.9c37.2,30.5,100.1-6.5,139.1,21.7c18.1,13.1,25.1,36.5,30.1,58.3c3.3,14.5,6.4,29.1,7.3,44
			c0.7,12.5,0.1,25.6,5.4,37c11.1,23.8,42.7,29.3,68.9,26.7c26.2-2.6,53.6-10,78-0.1c18.8,7.7,32.4,24.6,41.4,42.9
			s13.9,38.1,20.8,57.2c2.6,7.3,5.7,14.7,11.3,20c6.5,6.2,15.6,8.7,24.4,10.3c46.4,8.6,96.2-2.5,134.5-30"/>
		<path class="st9" d="M-398.5,676.3c13.3-16,37.5-17.5,57.7-12.4c20.2,5.1,39.8,16.2,50.4,34.2c14.1,23.8,9.8,53.6,7.5,81.2
			c-2.3,27.6-0.4,59.3,21,76.9c37.2,30.5,100.1-6.5,139.1,21.7c18.1,13.1,25.1,36.5,30.1,58.3c3.3,14.5,6.4,29.1,7.3,44
			c0.7,12.5,0.1,25.6,5.4,37c11.1,23.8,42.7,29.3,68.9,26.7c26.2-2.6,53.6-10,78-0.1c18.8,7.7,32.4,24.6,41.4,42.9
			c8.9,18.3,13.9,38.1,20.8,57.2c2.6,7.3,5.7,14.7,11.3,20c6.5,6.2,15.6,8.7,24.4,10.3c46.4,8.6,96.2-2.5,134.5-30"/>
		<path class="st9" d="M-382.4,669.3c13.3-16,37.5-17.5,57.7-12.4c20.2,5.1,39.8,16.2,50.4,34.2c14.1,23.8,9.8,53.6,7.5,81.2
			c-2.3,27.6-0.4,59.3,21,76.9c37.2,30.5,100.1-6.5,139.1,21.7c18.1,13.1,25.1,36.5,30.1,58.3c3.3,14.5,6.4,29.1,7.3,44
			c0.7,12.5,0.1,25.6,5.4,37c11.1,23.8,42.7,29.3,68.9,26.7c26.2-2.6,53.6-10,78-0.1c18.8,7.7,32.4,24.6,41.4,42.9
			c8.9,18.3,13.9,38.1,20.8,57.2c2.6,7.3,5.7,14.7,11.3,20c6.5,6.2,15.6,8.7,24.4,10.3c46.4,8.6,96.2-2.5,134.5-30"/>
		<path class="st9" d="M-366.2,662.2c13.3-16,37.5-17.5,57.7-12.4c20.2,5.1,39.8,16.2,50.4,34.2c14.1,23.8,9.8,53.6,7.5,81.2
			s-0.4,59.3,21,76.9c37.2,30.5,100.1-6.5,139.1,21.7c18.1,13.1,25.1,36.5,30.1,58.3c3.3,14.5,6.4,29.1,7.3,44
			c0.7,12.5,0.1,25.6,5.4,37c11.1,23.8,42.7,29.3,68.9,26.7c26.2-2.6,53.6-10,78-0.1c18.8,7.7,32.4,24.6,41.4,42.9
			c8.9,18.3,13.9,38.1,20.8,57.2c2.6,7.3,5.7,14.7,11.3,20c6.5,6.2,15.6,8.7,24.4,10.3c46.4,8.6,96.2-2.5,134.5-30"/>
		<path class="st9" d="M-350,655.2c13.3-16,37.5-17.5,57.7-12.4c20.2,5.1,39.8,16.2,50.4,34.2c14.1,23.8,9.8,53.6,7.5,81.2
			c-2.3,27.6-0.4,59.3,21,76.9c37.2,30.5,100.1-6.5,139.1,21.7c18.1,13.1,25.1,36.5,30.1,58.3c3.3,14.5,6.4,29.1,7.3,44
			c0.7,12.5,0.1,25.6,5.4,37c11.1,23.8,42.7,29.3,68.9,26.7s53.6-10,78-0.1c18.8,7.7,32.4,24.6,41.4,42.9
			c8.9,18.3,13.9,38.1,20.8,57.2c2.6,7.3,5.7,14.7,11.3,20c6.5,6.2,15.6,8.7,24.4,10.3c46.4,8.6,96.2-2.5,134.5-30"/>
		<path class="st9" d="M-333.9,648.1c13.3-16,37.5-17.5,57.7-12.4c20.2,5.1,39.8,16.2,50.4,34.2c14.1,23.8,9.8,53.6,7.5,81.2
			c-2.3,27.6-0.4,59.3,21,76.9c37.2,30.5,100.1-6.5,139.1,21.7c18.1,13.1,25.1,36.5,30.1,58.3c3.3,14.5,6.4,29.1,7.3,44
			c0.7,12.5,0.1,25.6,5.4,37c11.1,23.8,42.7,29.3,68.9,26.7s53.6-10,78-0.1c18.8,7.7,32.4,24.6,41.4,42.9
			c8.9,18.3,13.9,38.1,20.8,57.2c2.6,7.3,5.7,14.7,11.3,20c6.5,6.2,15.6,8.7,24.4,10.3c46.4,8.6,96.2-2.5,134.5-30"/>
		<path class="st9" d="M-317.7,641.1c13.3-16,37.5-17.5,57.7-12.4c20.2,5.1,39.8,16.2,50.4,34.2c14.1,23.8,9.8,53.6,7.5,81.2
			s-0.4,59.3,21,76.9c37.2,30.5,100.1-6.5,139.1,21.7c18.1,13.1,25.1,36.5,30.1,58.3c3.3,14.5,6.4,29.1,7.3,44
			c0.7,12.5,0.1,25.6,5.4,37c11.1,23.8,42.7,29.3,68.9,26.7s53.6-10,78-0.1c18.8,7.7,32.4,24.6,41.4,42.9
			c8.9,18.3,13.9,38.1,20.8,57.2c2.6,7.3,5.7,14.7,11.3,20c6.5,6.2,15.6,8.7,24.4,10.3c46.4,8.6,96.2-2.5,134.5-30"/>
		<path class="st9" d="M-301.5,634.1c13.3-16,37.5-17.5,57.7-12.4c20.2,5.1,39.8,16.2,50.4,34.2c14.1,23.8,9.8,53.6,7.5,81.2
			c-2.3,27.6-0.4,59.3,21,76.9c37.2,30.5,100.1-6.5,139.1,21.7c18.1,13.1,25.1,36.5,30.1,58.3c3.3,14.5,6.4,29.1,7.3,44
			c0.7,12.5,0.1,25.6,5.4,37c11.1,23.8,42.7,29.3,68.9,26.7c26.2-2.6,53.6-10,78-0.1c18.8,7.7,32.4,24.6,41.4,42.9
			c8.9,18.3,13.9,38.1,20.8,57.2c2.6,7.3,5.7,14.7,11.3,20c6.5,6.2,15.6,8.7,24.4,10.3c46.4,8.6,96.2-2.5,134.5-30"/>
		<path class="st9" d="M-285.4,627c13.3-16,37.5-17.5,57.7-12.4c20.2,5.1,39.8,16.2,50.4,34.2c14.1,23.8,9.8,53.6,7.5,81.2
			c-2.3,27.6-0.4,59.3,21,76.9c37.2,30.5,100.1-6.5,139.1,21.7c18.1,13.1,25.1,36.5,30.1,58.3c3.3,14.5,6.4,29.1,7.3,44
			c0.7,12.5,0.1,25.6,5.4,37c11.1,23.8,42.7,29.3,68.9,26.7s53.6-10,78-0.1c18.8,7.7,32.4,24.6,41.4,42.9
			c8.9,18.3,13.9,38.1,20.8,57.2c2.6,7.3,5.7,14.7,11.3,20c6.5,6.2,15.6,8.7,24.4,10.3c46.4,8.6,96.2-2.5,134.5-30"/>
		<path class="st9" d="M-269.2,620c13.3-16,37.5-17.5,57.7-12.4c20.2,5.1,39.8,16.2,50.4,34.2c14.1,23.8,9.8,53.6,7.5,81.2
			s-0.4,59.3,21,76.9c37.2,30.5,100.1-6.5,139.1,21.7c18.1,13.1,25.1,36.5,30.1,58.3c3.3,14.5,6.4,29.1,7.3,44
			c0.7,12.5,0.1,25.6,5.4,37c11.1,23.8,42.7,29.3,68.9,26.7s53.6-10,78-0.1c18.8,7.7,32.4,24.6,41.4,42.9
			c8.9,18.3,13.9,38.1,20.8,57.2c2.6,7.3,5.7,14.7,11.3,20c6.5,6.2,15.6,8.7,24.4,10.3c46.4,8.6,96.2-2.5,134.5-30"/>
		<path class="st9" d="M-253,612.9c13.3-16,37.5-17.5,57.7-12.4c20.2,5.1,39.8,16.2,50.4,34.2c14.1,23.8,9.8,53.6,7.5,81.2
			c-2.3,27.6-0.4,59.3,21,76.9c37.2,30.5,100.1-6.5,139.1,21.7c18.1,13.1,25.1,36.5,30.1,58.3c3.3,14.5,6.4,29.1,7.3,44
			c0.7,12.5,0.1,25.6,5.4,37c11.1,23.8,42.7,29.3,68.9,26.7c26.2-2.6,53.6-10,78-0.1c18.8,7.7,32.4,24.6,41.4,42.9
			c8.9,18.3,13.9,38.1,20.8,57.2c2.6,7.3,5.7,14.7,11.3,20c6.5,6.2,15.6,8.7,24.4,10.3c46.4,8.6,96.2-2.5,134.5-30"/>
		<path class="st9" d="M-236.9,605.9c13.3-16,37.5-17.5,57.7-12.4c20.2,5.1,39.8,16.2,50.4,34.2c14.1,23.8,9.8,53.6,7.5,81.2
			c-2.3,27.6-0.4,59.3,21,76.9c37.2,30.5,100.1-6.5,139.1,21.7C57,820.6,63.9,844,68.9,865.8c3.3,14.5,6.4,29.1,7.3,44
			c0.7,12.5,0.1,25.6,5.4,37c11.1,23.8,42.7,29.3,68.9,26.7s53.6-10,78-0.1c18.8,7.7,32.4,24.6,41.4,42.9
			c8.9,18.3,13.9,38.1,20.8,57.2c2.6,7.3,5.7,14.7,11.3,20c6.5,6.2,15.6,8.7,24.4,10.3c46.4,8.6,96.2-2.5,134.5-30"/>
		<path class="st9" d="M-220.7,598.9c13.3-16,37.5-17.5,57.7-12.4c20.2,5.1,39.8,16.2,50.4,34.2c14.1,23.8,9.8,53.6,7.5,81.2
			c-2.3,27.6-0.4,59.3,21,76.9C-46.9,809.2,16,772.2,55,800.4c18.1,13.1,25.1,36.5,30.1,58.3c3.3,14.5,6.4,29.1,7.3,44
			c0.7,12.5,0.1,25.6,5.4,37c11.1,23.8,42.7,29.3,68.9,26.7s53.6-10,78-0.1c18.8,7.7,32.4,24.6,41.4,42.9s13.9,38.1,20.8,57.2
			c2.6,7.3,5.7,14.7,11.3,20c6.5,6.2,15.6,8.7,24.4,10.3c46.4,8.6,96.2-2.5,134.5-30"/>
		<path class="st9" d="M-204.5,591.8c13.3-16,37.5-17.5,57.7-12.4c20.2,5.1,39.8,16.2,50.4,34.2c14.1,23.8,9.8,53.6,7.5,81.2
			c-2.3,27.6-0.4,59.3,21,76.9c37.2,30.5,100.1-6.5,139.1,21.7c18.1,13.1,25.1,36.5,30.1,58.3c3.3,14.5,6.4,29.1,7.3,44
			c0.7,12.5,0.1,25.6,5.4,37c11.1,23.8,42.7,29.3,68.9,26.7c26.2-2.6,53.6-10,78-0.1c18.8,7.7,32.4,24.6,41.4,42.9
			c8.9,18.3,13.9,38.1,20.8,57.2c2.6,7.3,5.7,14.7,11.3,20c6.5,6.2,15.6,8.7,24.4,10.3c46.4,8.6,96.2-2.5,134.5-30"/>
		<path class="st9" d="M-188.4,584.8c13.3-16,37.5-17.5,57.7-12.4c20.2,5.1,39.8,16.2,50.4,34.2c14.1,23.8,9.8,53.6,7.5,81.2
			c-2.3,27.6-0.4,59.3,21,76.9c37.2,30.5,100.1-6.5,139.1,21.7c18.1,13.1,25.1,36.5,30.1,58.3c3.3,14.5,6.4,29.1,7.3,44
			c0.7,12.5,0.1,25.6,5.4,37c11.1,23.8,42.7,29.3,68.9,26.7s53.6-10,78-0.1c18.8,7.7,32.4,24.6,41.4,42.9
			c8.9,18.3,13.9,38.1,20.8,57.2c2.6,7.3,5.7,14.7,11.3,20c6.5,6.2,15.6,8.7,24.4,10.3c46.4,8.6,96.2-2.5,134.5-30"/>
		<path class="st9" d="M-172.2,577.7c13.3-16,37.5-17.5,57.7-12.4c20.2,5.1,39.8,16.2,50.4,34.2c14.1,23.8,9.8,53.6,7.5,81.2
			c-2.3,27.6-0.4,59.3,21,76.9c37.2,30.5,100.1-6.5,139.1,21.7c18.1,13.1,25.1,36.5,30.1,58.3c3.3,14.5,6.4,29.1,7.3,44
			c0.7,12.5,0.1,25.6,5.4,37c11.1,23.8,42.7,29.3,68.9,26.7s53.6-10,78-0.1c18.8,7.7,32.4,24.6,41.4,42.9
			c8.9,18.3,13.9,38.1,20.8,57.2c2.6,7.3,5.7,14.7,11.3,20c6.5,6.2,15.6,8.7,24.4,10.3c46.4,8.6,96.2-2.5,134.5-30"/>
		<path class="st9" d="M-156,570.7c13.3-16,37.5-17.5,57.7-12.4c20.2,5.1,39.8,16.2,50.4,34.2c14.1,23.8,9.8,53.6,7.5,81.2
			c-2.3,27.6-0.4,59.3,21,76.9C17.8,781,80.7,744,119.7,772.2c18.1,13.1,25.1,36.5,30.1,58.3c3.3,14.5,6.4,29.1,7.3,44
			c0.7,12.5,0.1,25.6,5.4,37c11.1,23.8,42.7,29.3,68.9,26.7c26.2-2.6,53.6-10,78-0.1c18.8,7.7,32.4,24.6,41.4,42.9
			c8.9,18.3,13.9,38.1,20.8,57.2c2.6,7.3,5.7,14.7,11.3,20c6.5,6.2,15.6,8.7,24.4,10.3c46.4,8.6,96.2-2.5,134.5-30"/>
		<path class="st9" d="M-139.9,563.6c13.3-16,37.5-17.5,57.7-12.4c20.2,5.1,39.8,16.2,50.4,34.2c14.1,23.8,9.8,53.6,7.5,81.2
			c-2.3,27.6-0.4,59.3,21,76.9C34,774,96.8,737,135.8,765.2c18.1,13.1,25.1,36.5,30.1,58.3c3.3,14.5,6.4,29.1,7.3,44
			c0.7,12.5,0.1,25.6,5.4,37c11.1,23.8,42.7,29.3,68.9,26.7s53.6-10,78-0.1c18.8,7.7,32.4,24.6,41.4,42.9
			c8.9,18.3,13.9,38.1,20.8,57.2c2.6,7.3,5.7,14.7,11.3,20c6.5,6.2,15.6,8.7,24.4,10.3c46.4,8.6,96.2-2.5,134.5-30"/>
		<path class="st9" d="M-123.7,556.6c13.3-16,37.5-17.5,57.7-12.4c20.2,5.1,39.8,16.2,50.4,34.2c14.1,23.8,9.8,53.6,7.5,81.2
			s-0.4,59.3,21,76.9C50.1,767,113,730,152,758.2c18.1,13.1,25.1,36.5,30.1,58.3c3.3,14.5,6.4,29.1,7.3,44c0.7,12.5,0.1,25.6,5.4,37
			c11.1,23.8,42.7,29.3,68.9,26.7s53.6-10,78-0.1c18.8,7.7,32.4,24.6,41.4,42.9c8.9,18.3,13.9,38.1,20.8,57.2
			c2.6,7.3,5.7,14.7,11.3,20c6.5,6.2,15.6,8.7,24.4,10.3c46.4,8.6,96.2-2.5,134.5-30"/>
		<path class="st9" d="M-107.5,549.6c13.3-16,37.5-17.5,57.7-12.4c20.2,5.1,39.8,16.2,50.4,34.2c14.1,23.8,9.8,53.6,7.5,81.2
			c-2.3,27.6-0.4,59.3,21,76.9c37.2,30.5,100.1-6.5,139.1,21.7c18.1,13.1,25.1,36.5,30.1,58.3c3.3,14.5,6.4,29.1,7.3,44
			c0.7,12.5,0.1,25.6,5.4,37c11.1,23.8,42.7,29.3,68.9,26.7c26.2-2.6,53.6-10,78-0.1c18.8,7.7,32.4,24.6,41.4,42.9
			c8.9,18.3,13.9,38.1,20.8,57.2c2.6,7.3,5.7,14.7,11.3,20c6.5,6.2,15.6,8.7,24.4,10.3c46.4,8.6,96.2-2.5,134.5-30"/>
		<path class="st9" d="M-91.4,542.5c13.3-16,37.5-17.5,57.7-12.4c20.2,5.1,39.8,16.2,50.4,34.2c14.1,23.8,9.8,53.6,7.5,81.2
			c-2.3,27.6-0.4,59.3,21,76.9c37.2,30.5,100.1-6.5,139.1,21.7c18.1,13.1,25.1,36.5,30.1,58.3c3.3,14.5,6.4,29.1,7.3,44
			c0.7,12.5,0.1,25.6,5.4,37c11.1,23.8,42.7,29.3,68.9,26.7s53.6-10,78-0.1c18.8,7.7,32.4,24.6,41.4,42.9
			c8.9,18.3,13.9,38.1,20.8,57.2c2.6,7.3,5.7,14.7,11.3,20c6.5,6.2,15.6,8.7,24.4,10.3c46.4,8.6,96.2-2.5,134.5-30"/>
		<path class="st9" d="M-75.2,535.5c13.3-16,37.5-17.5,57.7-12.4c20.2,5.1,39.8,16.2,50.4,34.2c14.1,23.8,9.8,53.6,7.5,81.2
			s-0.4,59.3,21,76.9c37.2,30.5,100.1-6.5,139.1,21.7c18.1,13.1,25.1,36.5,30.1,58.3c3.3,14.5,6.4,29.1,7.3,44
			c0.7,12.5,0.1,25.6,5.4,37c11.1,23.8,42.7,29.3,68.9,26.7c26.2-2.6,53.6-10,78-0.1c18.8,7.7,32.4,24.6,41.4,42.9
			c8.9,18.3,13.9,38.1,20.8,57.2c2.6,7.3,5.7,14.7,11.3,20c6.5,6.2,15.6,8.7,24.4,10.3c46.4,8.6,96.2-2.5,134.5-30"/>
	</g>
	<g style="clip-path:url(#SVGID_00000147906728658855452200000013863660820094022528_);">
		<text transform="matrix(1 0 0 1 375.7959 283.5713)" class="st5 st10">AGE                 </text>
	</g>
	<g style="clip-path:url(#SVGID_00000147906728658855452200000013863660820094022528_);">
		<text transform="matrix(1 0 0 1 375.0767 318.4409)" class="st5 st10">PHONE</text>
	</g>
	<g style="clip-path:url(#SVGID_00000147906728658855452200000013863660820094022528_);">
		<text transform="matrix(1 0 0 1 375.0767 353.4409)" class="st5 st10">E-MAIL</text>
	</g>
	<g style="clip-path:url(#SVGID_00000147906728658855452200000013863660820094022528_);">
		<text transform="matrix(1 0 0 1 571.7451 277.2531)" class="st11 st12">26</text>
	</g>
	<g style="clip-path:url(#SVGID_00000147906728658855452200000013863660820094022528_);">
		<text transform="matrix(1 0 0 1 572.0273 314.8042)" class="st11 st12">010-3957-3909</text>
	</g>
	<g style="clip-path:url(#SVGID_00000147906728658855452200000013863660820094022528_);">
		<text transform="matrix(1 0 0 1 572.0273 349.8042)" class="st11 st12">tp06063@naver.com</text>
	</g>
	<g style="clip-path:url(#SVGID_00000147906728658855452200000013863660820094022528_);">
		<text transform="matrix(1 0 0 1 375.334 385.9716)" class="st5 st10">ADDRESS</text>
	</g>
	<g style="clip-path:url(#SVGID_00000147906728658855452200000013863660820094022528_);">
		<text transform="matrix(1 0 0 1 374.334 574.9716)" class="st5 st10">Hobby</text>
	</g>
	<g style="clip-path:url(#SVGID_00000147906728658855452200000013863660820094022528_);">
		<text transform="matrix(1 0 0 1 572.2549 386.1715)" class="st11 st12">경기도 성남시 분당구</text>
	</g>
	<g style="clip-path:url(#SVGID_00000147906728658855452200000013863660820094022528_);">
		<text transform="matrix(1 0 0 1 377.4707 433.1267)"><tspan x="0" y="0" class="st13 st12">정돈된 구조와 깔끔한 레이아웃을 좋아하는 웹디자이너입니다.</tspan><tspan x="0" y="28" class="st13 st12">작은 디테일도 놓치지 않는 꼼꼼함으로 완성도를 높입니다.</tspan><tspan x="0" y="56" class="st13 st12">틀에 얽매이지 않고, 유연한 발상으로 새로운 시도를 즐깁니다.</tspan><tspan x="0" y="84" class="st13 st12">사용자의 흐름과 감정을 고려한 직관적인 디자인을 지향합니다.</tspan></text>
	</g>
	<g style="clip-path:url(#SVGID_00000147906728658855452200000013863660820094022528_);">
		<text transform="matrix(1 0 0 1 375.4707 677.1267)"><tspan x="0" y="0" class="st13 st12">이야기를 좋아하고, 책을 즐겨 읽는 웹디자이너입니다.</tspan><tspan x="0" y="28" class="st13 st12">한 권의 책처럼 흐름 있는 사용자 경험을 설계합니다.</tspan><tspan x="0" y="56" class="st13 st12">텍스트와 이미지 사이의 균형을 섬세하게 다루는 데에 강점이 있습니다.</tspan></text>
	</g>
	<g style="clip-path:url(#SVGID_00000147906728658855452200000013863660820094022528_);">
		<text transform="matrix(1 0 0 1 375.4707 768.1267)"><tspan x="0" y="0" class="st13 st12">음악처럼 흐름과 리듬이 살아 있는 디자인을 추구합니다.</tspan><tspan x="0" y="28" class="st13 st12">소리를 즐기듯, 감각적인 화면 구성과 사용 경험을 설계합니다.</tspan></text>
	</g>
	<g style="clip-path:url(#SVGID_00000147906728658855452200000013863660820094022528_);">
		<text transform="matrix(1 0 0 1 375.4707 833.1267)"><tspan x="0" y="0" class="st13 st12">매일 강아지와 산책하며 관찰력과 여유를 기릅니다.</tspan><tspan x="0" y="28" class="st13 st12">일상의 작은 움직임에서 영감을 얻어 디자인에 녹여냅니다.</tspan></text>
	</g>
	<g style="clip-path:url(#SVGID_00000147906728658855452200000013863660820094022528_);">
		<text transform="matrix(1 0 0 1 1034.7324 120.0212)" class="st5 st10">CERTIfICATIONS</text>
	</g>
	<g style="clip-path:url(#SVGID_00000147906728658855452200000013863660820094022528_);">
		<text transform="matrix(1 0 0 1 1035.7324 575.0212)" class="st5 st10">skill</text>
	</g>
	<g style="clip-path:url(#SVGID_00000147906728658855452200000013863660820094022528_);">
	</g>
	<g style="clip-path:url(#SVGID_00000147906728658855452200000013863660820094022528_);">
		<text transform="matrix(1 0 0 1 1228.7686 161.7944)"><tspan x="0" y="0" class="st11 st12">GTQi(그래픽기술자격 일러스트)1급-</tspan><tspan x="0" y="28" class="st11 st12">한국생산성본부</tspan></text>
	</g>
	<g style="clip-path:url(#SVGID_00000147906728658855452200000013863660820094022528_);">
		<text transform="matrix(1 0 0 1 1035.4238 161.7944)" class="st5 st14">2025.09 </text>
	</g>
	<g style="clip-path:url(#SVGID_00000147906728658855452200000013863660820094022528_);">
		<text transform="matrix(1 0 0 1 1228.7686 227.7039)"><tspan x="0" y="0" class="st11 st12">GTQ(그래픽기술자격)1급-</tspan><tspan x="0" y="28" class="st11 st12">한국생산성본부</tspan><tspan x="121" y="28" class="st5 st12"> </tspan></text>
	</g>
	<g style="clip-path:url(#SVGID_00000147906728658855452200000013863660820094022528_);">
		<text transform="matrix(1 0 0 1 1226.7686 468.7039)"><tspan x="0" y="0" class="st11 st12">경기 대학교 입체 조형학과 졸업</tspan><tspan x="244.2" y="0" class="st5 st12"> </tspan></text>
	</g>
	<g style="clip-path:url(#SVGID_00000147906728658855452200000013863660820094022528_);">
		<text transform="matrix(1 0 0 1 1226.7686 424.7039)"><tspan x="0" y="0" class="st11 st12">디지털 디자인 UI/UX 디자인 및 웹 개발 국가 과정 수료</tspan><tspan x="425.3" y="0" class="st5 st12"> </tspan></text>
	</g>
	<g style="clip-path:url(#SVGID_00000147906728658855452200000013863660820094022528_);">
		<text transform="matrix(1 0 0 1 1074.7686 613.7039)" class="st15 st14">AI </text>
	</g>
	<g style="clip-path:url(#SVGID_00000147906728658855452200000013863660820094022528_);">
		<text transform="matrix(1 0 0 1 1508.7686 618.7039)"><tspan x="0" y="0" class="st11 st14">HTML5</tspan><tspan x="73.5" y="0" class="st5 st14"> </tspan></text>
	</g>
	<g style="clip-path:url(#SVGID_00000147906728658855452200000013863660820094022528_);">
		<text transform="matrix(1 0 0 1 1678.7686 613.7039)" class="st15 st14">CSS3 </text>
	</g>
	<g style="clip-path:url(#SVGID_00000147906728658855452200000013863660820094022528_);">
		<text transform="matrix(1 0 0 1 1226.7686 613.7039)" class="st15 st14">PS </text>
	</g>
	<g style="clip-path:url(#SVGID_00000147906728658855452200000013863660820094022528_);">
		<text transform="matrix(1 0 0 1 1362.7686 613.7039)" class="st15 st14">Figma </text>
	</g>
	<g style="clip-path:url(#SVGID_00000147906728658855452200000013863660820094022528_);">
		<text transform="matrix(1 0 0 1 1035.4233 227.7039)" class="st5 st14">2019.09 </text>
	</g>
	<g style="clip-path:url(#SVGID_00000147906728658855452200000013863660820094022528_);">
		<text transform="matrix(1 0 0 1 1036.4233 470.7039)" class="st5 st14">2024.02 </text>
	</g>
	<g style="clip-path:url(#SVGID_00000147906728658855452200000013863660820094022528_);">
		<text transform="matrix(1 0 0 1 1036.4233 424.7039)" class="st5 st14">2025.12 </text>
	</g>
	<g style="clip-path:url(#SVGID_00000147906728658855452200000013863660820094022528_);">
		<text transform="matrix(1 0 0 1 1034.3467 377.5508)" class="st5 st10">Education</text>
	</g>
	<g style="clip-path:url(#SVGID_00000147906728658855452200000013863660820094022528_);">
		<rect x="-27" y="921" width="1998" height="493"/>
		<rect x="-27" y="1021" class="st0" width="1998" height="102"/>
		<rect x="-27" y="1218" class="st0" width="1998" height="105"/>
		<rect x="80" y="921" class="st0" width="95" height="493"/>
		<rect x="278" y="921" class="st0" width="95" height="493"/>
		<rect x="488" y="927" class="st0" width="95" height="493"/>
		<rect x="488" y="921" class="st0" width="95" height="493"/>
		<rect x="698" y="921" class="st0" width="95" height="493"/>
		<rect x="899" y="921" class="st0" width="95" height="493"/>
		<rect x="1105" y="921" class="st0" width="95" height="493"/>
		<rect x="1305" y="921" class="st0" width="95" height="493"/>
		<rect x="1499" y="921" class="st0" width="95" height="493"/>
		<rect x="1696" y="921" class="st0" width="95" height="493"/>
		<rect x="1876" y="921" class="st0" width="95" height="493"/>
		<rect x="80" y="1021" width="95" height="102"/>
		<rect x="80" y="1220" width="95" height="102"/>
		<rect x="278" y="1220" width="95" height="102"/>
		<rect x="278" y="1021" width="95" height="102"/>
		<rect x="488" y="1021" width="95" height="102"/>
		<rect x="488" y="1220" width="95" height="102"/>
		<rect x="698" y="1218" width="95" height="105"/>
		<rect x="698" y="1018" width="95" height="105"/>
		<rect x="899" y="1020" width="95" height="105"/>
		<rect x="899" y="1218" width="95" height="105"/>
		<rect x="1105" y="1218" width="95" height="106"/>
		<rect x="1305" y="1218" width="95" height="106"/>
		<rect x="1305" y="1019" width="95" height="106"/>
		<rect x="1499" y="1019" width="95" height="106"/>
		<rect x="1499" y="1218" width="95" height="106"/>
		<rect x="1696" y="1218" width="95" height="106"/>
		<rect x="1696" y="1019" width="95" height="106"/>
		<rect x="1876" y="1019" width="95" height="106"/>
		<rect x="1876" y="1218" width="95" height="106"/>
		<rect x="1105" y="1018" width="95" height="105"/>
	</g>
	<g style="clip-path:url(#SVGID_00000147906728658855452200000013863660820094022528_);">
		<path d="M121,63.4C64.2,64,63.7,64.6,63,121.4C62.3,64.6,61.8,64,4.9,63.4C61.8,62.7,62.3,62.2,63,5.3
			C63.7,62.2,64.2,62.7,121,63.4z"/>
	</g>
	<g style="clip-path:url(#SVGID_00000147906728658855452200000013863660820094022528_);">
		<path d="M152.5,115.7c-39,0.4-39.4,0.8-39.8,39.8c-0.4-39-0.8-39.4-39.8-39.8c39-0.4,39.4-0.8,39.8-39.8
			C113.1,114.9,113.5,115.2,152.5,115.7z"/>
	</g>
	
		<path style="clip-path:url(#SVGID_00000147906728658855452200000013863660820094022528_);fill:none;stroke:#000000;stroke-width:1.5;stroke-linecap:round;stroke-linejoin:round;" d="
		M395.4,597c-3.4-3.1-7.8-4.8-12.4-4.7c-2.2,0-4.3,0.4-6.2,1.1v29.5c2-0.7,4.1-1.1,6.2-1.1c4.8,0,9.1,1.8,12.4,4.7 M395.4,597
		c3.4-3.1,7.8-4.8,12.4-4.7c2.2,0,4.3,0.4,6.2,1.1v29.5c-2-0.7-4.1-1.1-6.2-1.1c-4.6,0-9,1.7-12.4,4.7 M395.4,597v29.5"/>
	<path style="clip-path:url(#SVGID_00000147906728658855452200000013863660820094022528_);" d="M304.2,497.5l0.4,3l1.5-0.2l-0.2-1.5
		l6-0.9l-0.4-3l-1.5,0.2l0.2,1.5L304.2,497.5z M308.3,493.9l1.5-0.2l0.2,1.5l-1.5,0.2L308.3,493.9z M308.2,503.1l1.5-0.2l0.4,3
		l-1.5,0.2L308.2,503.1z M306.6,492.6l1.5-0.2l0.2,1.5l-1.5,0.2L306.6,492.6z M306.2,500.3l1.5-0.2l0.4,3l-1.5,0.2L306.2,500.3z
		 M304.9,491.3l1.5-0.2l0.2,1.5l-1.5,0.2L304.9,491.3z M305.6,506.6l3-0.4l0.2,1.5l-3,0.4L305.6,506.6z M303.1,490l1.5-0.2l0.2,1.5
		l-1.5,0.2L303.1,490z M303.6,503.8l1.5-0.2l0.4,3l-1.5,0.2L303.6,503.8z M301.4,488.7l1.5-0.2l0.2,1.5l-1.5,0.2L301.4,488.7z
		 M301.7,501l1.5-0.2l0.4,3l-1.5,0.2L301.7,501z M299.7,487.4l1.5-0.2l0.2,1.5l-1.5,0.2L299.7,487.4z M300,499.7l1.5-0.2l0.2,1.5
		l-1.5,0.2L300,499.7z M297.9,486.2l1.5-0.2l0.2,1.5l-1.5,0.2L297.9,486.2z M298.7,501.5l1.5-0.2l0.2,1.5l-1.5,0.2L298.7,501.5z
		 M296.2,484.9l1.5-0.2l0.2,1.5l-1.5,0.2L296.2,484.9z M297.4,503.2l1.5-0.2l0.2,1.5l-1.5,0.2L297.4,503.2z M294.5,483.6l1.5-0.2
		l0.2,1.5l-1.5,0.2L294.5,483.6z M291,481l3.8,25.6l3-0.4l-0.2-1.5l-1.5,0.2l-3.1-21.1l1.5-0.2l-0.2-1.5l-1.5,0.2l-0.2-1.5L291,481z
		"/>
	
		<path style="clip-path:url(#SVGID_00000147906728658855452200000013863660820094022528_);fill:none;stroke:#000000;stroke-width:12;stroke-miterlimit:10;" d="
		M1088,659"/>
	<g style="clip-path:url(#SVGID_00000147906728658855452200000013863660820094022528_);">
		<g>
			<path d="M1088.3,639c30.6,0.4,51.9,33.5,37.3,61.3c-14.2,27-53.1,30.4-71.2,5.5c-11.3-15.6-10.2-36.2,1.3-51.3
				c3.9-5.1-4.8-10.1-8.6-5c-12.3,16.2-14.1,38.6-4.4,56.5c8.5,15.7,25.1,26,42.9,27c38,2.2,65.5-38,50.4-72.7
				c-8.2-18.9-27.1-30.9-47.6-31.2C1081.9,628.9,1081.9,638.9,1088.3,639L1088.3,639z"/>
		</g>
	</g>
	<g style="clip-path:url(#SVGID_00000147906728658855452200000013863660820094022528_);">
		<g>
			<path d="M1402.6,639c30.6,0.4,51.9,33.5,37.3,61.3c-14.2,27-53.1,30.4-71.2,5.5c-11.3-15.6-10.2-36.2,1.3-51.3
				c3.9-5.1-4.8-10.1-8.6-5c-12.3,16.2-14.1,38.6-4.4,56.5c8.5,15.7,25.1,26,42.9,27c38,2.2,65.5-38,50.4-72.7
				c-8.2-18.9-27.1-30.9-47.6-31.2C1396.2,628.9,1396.2,638.9,1402.6,639L1402.6,639z"/>
		</g>
	</g>
	<g style="clip-path:url(#SVGID_00000147906728658855452200000013863660820094022528_);">
		<path d="M1106,681c-17.5,0.2-17.6,0.4-17.8,17.8c-0.2-17.5-0.4-17.6-17.8-17.8c17.5-0.2,17.6-0.4,17.8-17.8
			C1088.4,680.6,1088.5,680.8,1106,681z"/>
	</g>
	<g style="clip-path:url(#SVGID_00000147906728658855452200000013863660820094022528_);">
		<g>
			<path d="M1241.3,639c30.6,0.4,51.9,33.5,37.3,61.3c-14.2,27-53.1,30.4-71.2,5.5c-11.3-15.6-10.2-36.2,1.3-51.3
				c3.9-5.1-4.8-10.1-8.6-5c-12.3,16.2-14.1,38.6-4.4,56.5c8.5,15.7,25.1,26,42.9,27c38,2.2,65.5-38,50.4-72.7
				c-8.2-18.9-27.1-30.9-47.6-31.2C1234.9,628.9,1234.9,638.9,1241.3,639L1241.3,639z"/>
		</g>
	</g>
	<g style="clip-path:url(#SVGID_00000147906728658855452200000013863660820094022528_);">
		<path d="M1259,681c-17.5,0.2-17.6,0.4-17.8,17.8c-0.2-17.5-0.4-17.6-17.8-17.8c17.5-0.2,17.6-0.4,17.8-17.8
			C1241.4,680.6,1241.5,680.8,1259,681z"/>
	</g>
	<g style="clip-path:url(#SVGID_00000147906728658855452200000013863660820094022528_);">
		<path d="M1570,681c-17.5,0.2-17.6,0.4-17.8,17.8c-0.2-17.5-0.4-17.6-17.8-17.8c17.5-0.2,17.6-0.4,17.8-17.8
			C1552.4,680.6,1552.5,680.8,1570,681z"/>
	</g>
	<g style="clip-path:url(#SVGID_00000147906728658855452200000013863660820094022528_);">
		<path d="M1420.9,681c-17.5,0.2-17.6,0.4-17.8,17.8c-0.2-17.5-0.4-17.6-17.8-17.8c17.5-0.2,17.6-0.4,17.8-17.8
			C1403.3,680.6,1403.5,680.8,1420.9,681z"/>
	</g>
	<g style="clip-path:url(#SVGID_00000147906728658855452200000013863660820094022528_);">
		<path d="M1793.6,848.1c60-0.7,60.5-1.2,61.2-61.2c0.7,60,1.2,60.5,61.2,61.2c-60,0.7-60.5,1.2-61.2,61.2
			C1854.1,849.3,1853.5,848.8,1793.6,848.1z"/>
	</g>
	<g style="clip-path:url(#SVGID_00000147906728658855452200000013863660820094022528_);">
		<path d="M1760.4,792.9c41.1-0.5,41.5-0.9,42-42c0.5,41.1,0.9,41.5,42,42c-41.1,0.5-41.5,0.9-42,42
			C1801.9,793.8,1801.5,793.4,1760.4,792.9z"/>
	</g>
	<g style="clip-path:url(#SVGID_00000147906728658855452200000013863660820094022528_);">
		<path class="st18" d="M548.3,594.9l-2-5c-2.2,0.8-6.8,5.8-6,13 M562.3,594.9l2-5c2.2,0.8,6.8,5.8,6,13"/>
		<path class="st19" d="M573.3,613.4c0,9.7-8.1,14.5-18,14.5s-18-4.8-18-14.5c0-9.7,8.1-19.5,18-19.5S573.3,603.7,573.3,613.4z"/>
		<circle cx="551.3" cy="601.9" r="2"/>
		<circle cx="559.3" cy="601.9" r="2"/>
		<path class="st18" d="M555.3,610.9c0,1.7,0.5,5.5-3,5.5c-1.7,0-3-1.3-3-3"/>
		<path class="st18" d="M555.3,610.9c0,1.7-0.5,5.5,3,5.5c1.7,0,3-1.3,3-3"/>
		<path class="st20" d="M557.3,610.6c0,0.7-2,1.8-2,1.8s-2-1.1-2-1.8s0.5-1.2,2-1.2S557.3,610,557.3,610.6z"/>
	</g>
	<g style="clip-path:url(#SVGID_00000147906728658855452200000013863660820094022528_);">
		<path class="st20" d="M476.5,591.1v36c-7,0-12.2-9.2-12.2-9.2h-5.8c-1.1,0-2-0.9-2-2v-13.8c0-1.1,0.9-2,2-2h5.8
			C464.3,600.1,469.5,591.1,476.5,591.1z"/>
		<path class="st18" d="M484.5,600.1c0.6,0.6,1.2,1.2,1.7,1.9c1.5,2.1,2.3,4.6,2.3,7.1c0,2.7-0.8,5.1-2.3,7.1
			c-0.5,0.7-1.1,1.3-1.7,1.9"/>
		<path class="st21" d="M486.7,626.3c5.8-3.5,9.8-9.9,9.8-17.2c0-7.2-3.8-13.5-9.5-17"/>
	</g>
	<g style="clip-path:url(#SVGID_00000147906728658855452200000013863660820094022528_);">
		<path d="M1760.4,792.9c41.1-0.5,41.5-0.9,42-42c0.5,41.1,0.9,41.5,42,42c-41.1,0.5-41.5,0.9-42,42
			C1801.9,793.8,1801.5,793.4,1760.4,792.9z"/>
	</g>
	<g style="clip-path:url(#SVGID_00000147906728658855452200000013863660820094022528_);">
		<path d="M1570,681c-17.5,0.2-17.6,0.4-17.8,17.8c-0.2-17.5-0.4-17.6-17.8-17.8c17.5-0.2,17.6-0.4,17.8-17.8
			C1552.4,680.6,1552.5,680.8,1570,681z"/>
	</g>
	<g style="clip-path:url(#SVGID_00000147906728658855452200000013863660820094022528_);">
		<g>
			<path d="M1552,638.3c6.2-0.4,12.6,1,18.3,3.5c14.9,6.5,22.6,20.8,25.5,36.3c1,5.4,9.4,3.1,8.3-2.3c-3.3-17.2-12.4-33.4-28.8-41.1
				c-7.1-3.3-15.5-5.6-23.4-5.1C1546.5,630.1,1546.5,638.7,1552,638.3L1552,638.3z"/>
		</g>
	</g>
	<g style="clip-path:url(#SVGID_00000147906728658855452200000013863660820094022528_);">
		<path d="M1726,682c-17.5,0.2-17.6,0.4-17.8,17.8c-0.2-17.5-0.4-17.6-17.8-17.8c17.5-0.2,17.6-0.4,17.8-17.8
			C1708.4,681.6,1708.5,681.8,1726,682z"/>
	</g>
	<g style="clip-path:url(#SVGID_00000147906728658855452200000013863660820094022528_);">
		<g>
			<path d="M1708,639.3c6.2-0.4,12.6,1,18.3,3.5c14.9,6.5,22.6,20.8,25.5,36.3c1,5.4,9.4,3.1,8.3-2.3c-3.3-17.2-12.4-33.4-28.8-41.1
				c-7.1-3.3-15.5-5.6-23.4-5.1C1702.5,631.1,1702.5,639.7,1708,639.3L1708,639.3z"/>
		</g>
	</g>
</g>
<g>
	<rect x="2013" y="597" class="st22" width="140" height="140"/>
</g>
</svg>
