<svg width="104" height="104" viewBox="0 0 104 104" fill="none" xmlns="http://www.w3.org/2000/svg">
<g clip-path="url(#clip0_29_547)">
<path d="M51.8901 10.0001C82.5301 10.4401 103.79 43.5501 89.2101 71.3101C75.0101 98.3301 36.1201 101.72 17.9801 76.8201C6.65006 61.2601 7.78006 40.5901 19.2601 25.4801C23.1501 20.3601 14.4701 15.3701 10.6301 20.4301C-1.70994 36.6601 -3.48994 59.0001 6.25006 76.9201C14.7901 92.6401 31.3201 102.91 49.1301 103.92C87.1701 106.07 114.63 65.9301 99.5201 31.1801C91.2801 12.2401 72.3901 0.300116 51.8901 0.000115586C45.4501 -0.0898844 45.4501 9.91012 51.8901 10.0001Z" fill="white"/>
<path d="M70.2401 51.9699C52.7901 52.1699 52.6201 52.3299 52.4201 69.7899C52.2201 52.3399 52.0601 52.1699 34.6001 51.9699C52.0501 51.7699 52.2201 51.6099 52.4201 34.1499C52.6201 51.5999 52.7801 51.7699 70.2401 51.9699Z" fill="white"/>
</g>
<defs>
<clipPath id="clip0_29_547">
<rect width="103.74" height="104" fill="white"/>
</clipPath>
</defs>
</svg>
