<svg width="69" height="70" viewBox="0 0 69 70" fill="none" xmlns="http://www.w3.org/2000/svg">
<g clip-path="url(#clip0_29_750)">
<path d="M35.64 51.9401C18.19 52.1401 18.02 52.3001 17.82 69.7601C17.62 52.3101 17.46 52.1401 0 51.9401C17.45 51.7401 17.62 51.5801 17.82 34.1201C18.02 51.5701 18.18 51.7401 35.64 51.9401Z" fill="white"/>
<path d="M18.3301 10.0102C18.8001 10.0402 19.2701 10.1002 19.7401 10.1402C20.0001 10.1702 19.2201 10.0402 20.5001 10.2502C21.2601 10.3802 22.0201 10.5102 22.7701 10.6602C27.0701 11.5102 31.3401 12.7702 35.3301 14.5802C47.5901 20.1202 55.9201 30.0202 58.9201 43.1802C60.3501 49.4502 69.9901 46.8002 68.5601 40.5202C63.2501 17.1902 41.8101 1.47022 18.3301 0.01022C11.9001 -0.38978 11.9301 9.61022 18.3301 10.0102Z" fill="white"/>
</g>
<defs>
<clipPath id="clip0_29_750">
<rect width="68.71" height="69.76" fill="white"/>
</clipPath>
</defs>
</svg>
